<svg xmlns="http://www.w3.org/2000/svg" viewBox="0 0 200 200"><defs><style>.cls-1{isolation:isolate;}.cls-2{fill:#932492;}.cls-3{fill:#660f16;}.cls-13,.cls-4,.cls-8{mix-blend-mode:multiply;}.cls-5{fill:#027cff;}.cls-6{fill:#014a99;}.cls-7{fill:#33e1ff;}.cls-8,.cls-9{fill:#ff2636;}.cls-10{fill:#cc1e2b;}.cls-11{fill:#33d18d;}.cls-12{fill:#33f2d5;}.cls-13{fill:#3596ff;}</style></defs><title>rebrand_helpcentre2_icons200x200</title><g class="cls-1"><g id="Layer_1" data-name="Layer 1"><g id="NormalMailing4"><path class="cls-2" d="M170,129.41c.14-8.8.14-17-10.63-17.87-16.26-1.39-33.31.18-49.62.3l-40.73.3a1.84,1.84,0,0,0-.69.14c-10.4,2-8.4,14.07-8.2,22.18.38,15.47.11,31,.6,46.42.27,8.39,2.9,13.17,12,13.19,14.78,0,29.57-.18,44.36-.13,13.9,0,28.7,1.61,42.55.19,8.87-.9,11-7.81,10.92-16C170.38,161.91,169.67,145.63,170,129.41Z"/><path class="cls-3" d="M102.35,142.38s-4,.34-3.5,3.56c.54,3.7,3.23,3.16,3.23,3.16l26.54.17s3.77-1.34,2.69-4.3-3.13-2.53-3.13-2.53Z"/><path class="cls-2" d="M72.23,118.53l-33-28.18c-2.14-1.83-7.44,1.28-4.71,3.61q16.47,14.1,33,28.18C69.65,124,75,120.86,72.23,118.53Z"/><path class="cls-2" d="M190.62,90.7l-33,28.17c-3.16,2.71,1.71,5,4.11,2.92l32.95-28.17C197.88,90.92,193,88.65,190.62,90.7Z"/><g class="cls-4"><path class="cls-5" d="M167,100.86c-12.58,8.74-46.7,19.44-46.7,19.44s-17.59,5.35-25.59,8.3a38.25,38.25,0,0,1-13.8,2.7,12.52,12.52,0,0,1-3.27-7.81v-.08c-5.33-8.65-4.9-22.75-4.9-22.75s-1.31-9.29-2.6-15.72c-.27-1.36-.53-2.62-.79-3.61a9.64,9.64,0,0,1,.32-6.13,5.83,5.83,0,0,1,3.48-3.29,31.5,31.5,0,0,0,8.16-4.48,80,80,0,0,1,8.26-3.8,49.33,49.33,0,0,1,7-2.21c4.13-.91,8.6,5.65,11.75,11.58.17.3.31.58.47.89,2,3.76,3.32,7.11,3.68,7.81,1,1.82,26.26,3.63,37.45,2.87s13.31,8.93,13.31,8.93C165.77,94.81,167,100.86,167,100.86Z"/><path class="cls-6" d="M163.21,93.5C159.14,102,136,107.72,136,107.72s4.75-15.15-.14-12.5-10.17-1-10.17-1-6.76-3.17-12.49,1.18-7.25-4.1-8-7.45a29.71,29.71,0,0,1-.49-3.32l-.06-2.3c.31-1.85-1.06-4-1.2-4.31C96.92,83.46,88.67,91.91,91,98.33c3.71,10.24,14.71,19.92,14.71,19.92s-16.18,6.4-28,5.16c-5.33-8.65-4.9-22.75-4.9-22.75s-1.31-9.29-2.6-15.72c2.66-1.65,23.26-14.44,22.47-16.88a12.81,12.81,0,0,0-3-4.43,49.33,49.33,0,0,1,7-2.21c4.13-.91,8.6,5.65,11.75,11.58.16.25.27.52.41.78,0,0,0,0,.06.11,2,3.76,3.32,7.11,3.68,7.81,1,1.82,26.26,3.63,37.45,2.87S163.21,93.5,163.21,93.5Z"/><path class="cls-7" d="M167,100.86c-12.58,8.74-46.7,19.44-46.7,19.44s-17.59,5.35-25.59,8.3a38.25,38.25,0,0,1-13.8,2.7,12.52,12.52,0,0,1-3.27-7.81v-.08s10,1,28-5.16S136,107.72,136,107.72s23-5.32,27.26-14.22C165.77,94.81,167,100.86,167,100.86Z"/><path class="cls-8" d="M112.31,88.16a33.33,33.33,0,0,0,7.08-7.1c.48-.6-.4-1-.87-1.06a2.37,2.37,0,0,0-2,.88A29.2,29.2,0,0,1,110.35,87c-.51.35-.81.94-.23,1.36a2.24,2.24,0,0,0,2.19-.24Z"/><path class="cls-8" d="M121.9,90.08c1.78-2,2.49-5.17,3.13-7.66.32-1.27-2.79-.85-3.09.32a27.92,27.92,0,0,1-1.84,5.42c-.19.37-.39.73-.61,1.08s-.15.23-.1.16c-1.24,1.39,1.72,1.55,2.51.68Z"/><path class="cls-8" d="M129.85,90.41c1.34-2.18,1.45-5.38,1.62-7.81.1-1.39-3-.85-3.08.32-.16,2.23-.2,5.31-1.43,7.3-.81,1.32,2.29,1.16,2.89.19Z"/></g><path class="cls-9" d="M58,36.81l5.32-11.5c.16-.33.29-.77-.11-1-10-6.31-19.49-12.8-31.87-7.53-.66.28-2.67,1.3-2.23,2.33,3.24,7.62-5.55,5.2-6.57,2.8-.44-1-2.62-.27-3.23,0C8.13,26.66,6.22,39.41,3.57,49.71c-.12.44.33.67.66.78l12,4.13c1.21.42,4.14-.64,4.74-2q5.26,12.67,10.54,25.34c.42,1,2.68.53,4.17-.39l27.24-11.6c.66-.28,2.68-1.31,2.23-2.33Q59.75,51.27,54.37,38.93C55.81,38.74,57.64,37.67,58,36.81Z"/><g class="cls-4"><path class="cls-9" d="M25.23,27.29A17,17,0,0,0,32.92,24h0a3.11,3.11,0,0,0,.28-.23l.34-.31.27-.29a4.94,4.94,0,0,0,.86-5.09l-.11-.24-1.77.75a33.78,33.78,0,0,0-11.33,4.83l-1.77.75.1.24A5,5,0,0,0,25.23,27.29Z"/><path class="cls-9" d="M25.16,29.12a22.71,22.71,0,0,0,6.45-2.21,14.45,14.45,0,0,0,3-1.89c.34-.31,2.08-1.84.57-.45,2.21-2.05,3.37-5,2.13-7.87-.52-1.22-2.53-.79-3.4-.42C31.33,17.37,28.59,17.92,26,19s-4.59,2.57-7,3.6c-.9.38-2.58,1.52-2.06,2.74,1.31,3.06,4.34,4.11,7.48,3.88,2.45-.18,5.46-4.18,1.59-3.9A3.48,3.48,0,0,1,22.42,23l-2.06,2.74c2.43-1,4.58-2.55,7-3.59,2.57-1.1,5.3-1.65,7.88-2.74L31.84,19c1.05,2.48-.61,3.38-1.61,5.21l1.32-1.42a15,15,0,0,1-6.24,2.65C22.34,26,21.28,29.84,25.16,29.12Z"/></g><g class="cls-4"><path class="cls-10" d="M33.18,19.51a28.73,28.73,0,0,0-11.34,4.83l-1.6,1.14L19.59,24a21.25,21.25,0,0,1-.82-2.27l1.49-1.06A28.59,28.59,0,0,1,31.59,15.8l1.8-.34a22.82,22.82,0,0,1,1.07,2.16l.65,1.53Z"/><path class="cls-10" d="M34.23,18.16A41.22,41.22,0,0,0,18.54,25.3l4.43-1a32.42,32.42,0,0,1-1.47-3.8l-1,1.34a28.79,28.79,0,0,1,11.86-5.05l-1.68-.19a31.68,31.68,0,0,1,1.72,3.69l3.78-2.51-1.93.36c-1.56.29-5.81,3.4-2.11,2.71l1.94-.37c.67-.12,4.28-1.33,3.78-2.51a32.58,32.58,0,0,0-1.72-3.69c-.3-.51-1.25-.27-1.68-.19a42.56,42.56,0,0,0-17.37,7.4c-.36.25-1.19.77-1,1.34a33.05,33.05,0,0,0,1.46,3.8c.5,1.18,3.88-.59,4.43-1a26.43,26.43,0,0,1,10.18-4.79c.89-.19,3.32-.89,3.6-1.91S35.22,18,34.23,18.16Z"/></g><path class="cls-11" d="M38.62,17.07c-.44-1.23-3.36-2.71-4.67-2.73h-.06c-.42,0-1.35.35-1.31.71.43,3.74-.3,8.42-3.35,10.93-3.92.47-7.8-2.24-10.21-5.15-.24-.28-1.14.16-1.44.46l0,0c-.82.88-1.86,4.11-1.34,5.2.33.69,1.56,1.43,2.12,1.91a27.07,27.07,0,0,0,4.24,3.07c1.58.88,3,1.42,4.33,0a19.94,19.94,0,0,0,2.85-4.28,18.43,18.43,0,0,0,5.2.92c2-.07,2.5-1.68,2.92-3.42a27,27,0,0,0,.64-4.64A9.65,9.65,0,0,0,38.62,17.07Z"/><g class="cls-4"><path class="cls-12" d="M28.17,66.61C25.25,65,23.12,64,21.75,60.78c-.94-2.24-2.86-2.83-4.79-.64-2.37,2.69-1.49,6.2-6.25,7.11a1.62,1.62,0,0,0-1,.55c-2.21,1.59-3,4.17-.43,5.75,1.21.73,2.82.66,4,1.32,2,1.14,2,3.31,2.59,5.33s2.25,3.3,4.27,2.53a4.78,4.78,0,0,0,2.3-2.27c.62-1.22.4-2.55,1.25-3.72A9.16,9.16,0,0,1,26.8,74.5c1.82-1,4.35-2,4.41-4.52C31.26,68.12,29.57,67.4,28.17,66.61Z"/><path class="cls-12" d="M110.06,17.66c-1.89-1.07-3.28-1.65-4.16-3.74-.79-1.86-2.62-2.07-4.12-.41s-.94,4-3.83,4.54a1.58,1.58,0,0,0-1,.56c-1.54,1.15-2.18,3.1-.26,4.22.84.49,1.94.47,2.75.92s1.14,2.13,1.51,3.37a2.59,2.59,0,0,0,3.57,1.8,3.73,3.73,0,0,0,1.8-1.73c.39-.77.26-1.67.77-2.39A5.33,5.33,0,0,1,109,23.45c1.33-.71,3.17-1.49,3.24-3.32C112.25,18.79,111.07,18.24,110.06,17.66Z"/><path class="cls-12" d="M184.21,67.76c-2.42-1.37-4.19-2.13-5.32-4.81-.87-2.05-2.75-2.47-4.46-.54-2,2.19-1.23,5.14-5.08,5.87a1.59,1.59,0,0,0-1,.55c-1.86,1.37-2.64,3.68-.35,5,1,.6,2.39.57,3.38,1.13,1.47.82,1.57,2.73,2.07,4.37s2.12,2.92,3.93,2.18a4.32,4.32,0,0,0,2.06-2c.51-1,.34-2.12,1-3.07A7.39,7.39,0,0,1,183,74.63c1.59-.84,3.78-1.75,3.85-3.93C186.86,69.09,185.42,68.45,184.21,67.76Z"/></g><path class="cls-9" d="M166.18,33.19a2.22,2.22,0,0,0-2.44.89c-.79,1.36-4.57,8.14-4.57,8.14s-2.29,3.2.33,4.43l4.36,2.56s1.84.48,2.64-.88l5.29-9a2.14,2.14,0,0,0-.6-3.28C169.05,34.67,166.18,33.19,166.18,33.19Z"/><path class="cls-9" d="M164.59,50.17a3.72,3.72,0,0,1-1-.12l-.22-.09-4.36-2.56a2.82,2.82,0,0,1-1.59-1.85c-.45-1.74.84-3.62,1-3.84,0,0,3.74-6.72,4.53-8.07a3,3,0,0,1,3.43-1.28l.16.06c.12.06,2.93,1.52,5.08,2.88a3.05,3.05,0,0,1,1.5,2.06,3.45,3.45,0,0,1-.69,2.49l-5.23,8.92A2.93,2.93,0,0,1,164.59,50.17Zm-.42-1.78c.3,0,1.21.15,1.58-.49l5.29-9a1.72,1.72,0,0,0,.4-1.23,1.37,1.37,0,0,0-.71-.88c-1.87-1.18-4.34-2.48-4.85-2.75a1.27,1.27,0,0,0-1.39.51c-.79,1.35-4.56,8.12-4.56,8.12a3.8,3.8,0,0,0-.78,2.48,1.17,1.17,0,0,0,.72.75Z"/><polygon class="cls-13" points="164.56 33.55 168.81 26.65 175.97 30.64 171.91 37.56 164.56 33.55"/><path class="cls-13" d="M136.08,76.34a14.8,14.8,0,0,1-5-.84,15.11,15.11,0,0,1-8.93-8.8l1.72-.7a13.08,13.08,0,0,0,7.83,7.75,14,14,0,0,0,11.43-1.14,13.23,13.23,0,0,0,2.41-1.71,11,11,0,0,1-8.62-.08c-8.85-3.74-11.51-11.07-10.22-16.69a10.55,10.55,0,0,1,11.34-8.35c13,.67,13.19,13.49,13.19,13.61h0a14.86,14.86,0,0,1-.11,5c6.37-7.24,10.28-19,10.33-19.18l1.77.58c-.24.72-5.14,15.49-13.34,22.44a13.86,13.86,0,0,1-5.85,6A16.33,16.33,0,0,1,136.08,76.34Zm1.3-28.72a8.71,8.71,0,0,0-8.85,6.93c-1.11,4.85,1.28,11.24,9.13,14.55A9,9,0,0,0,145.3,69a14.21,14.21,0,0,0,3.09-2,13.72,13.72,0,0,0,1-7.45c0-.63-.23-11.36-11.44-11.94Z"/></g></g></g></svg>