<svg xmlns="http://www.w3.org/2000/svg" xmlns:xlink="http://www.w3.org/1999/xlink" viewBox="0 0 200 200"><defs><style>.cls-1,.cls-10,.cls-2{fill:#ff2636;}.cls-1{clip-rule:evenodd;}.cls-3{isolation:isolate;}.cls-4{fill:#1943b0;}.cls-5{fill:#0263cc;}.cls-5,.cls-9{mix-blend-mode:multiply;}.cls-6{fill:#33e1ff;}.cls-7{fill:#c5c5c6;}.cls-8{fill:#f0f1f1;}.cls-10{fill-rule:evenodd;}.cls-11{clip-path:url(#clip-path);}.cls-12{clip-path:url(#clip-path-2);}</style><clipPath id="clip-path"><path class="cls-1" d="M89.79,87.94a2.55,2.55,0,0,0-1.6-4l-8.91-1.79c-.57-.11-2.56-5.56-2.9-6.29-.55-1.24-1.66-2.65-1.83-4-.2-1.69,1.15-2.28,2.34-3.48a22.44,22.44,0,0,0,6-9.29,23.71,23.71,0,0,0,.8-6.55c0-3.39.09-7.61-1.21-10.76-1.22-3-3.47-5.56-5.31-8.14a25.37,25.37,0,0,0-7.88-7.52A25.41,25.41,0,0,0,62,23a25.37,25.37,0,0,0-7.23-.1c-3.32.27-7,.49-10.07,1.83A18.53,18.53,0,0,0,40,27.89c-4.57,4-9.49,8.71-11.26,14.58C26.16,51,28.06,62,33.84,69a18.5,18.5,0,0,0,3.62,3.28A29.14,29.14,0,0,0,49,77c1.62.29,4.14-.12,5.61.45s1.75,2.32,2.3,3.68l3,7.41,7.28,18,3.65,9c.69,1.72,1.38,5.06,2.84,6.29s4.79,1.87,6.65,2.59c1.7.66,3.63,1.93,5.54,1.41s2.23-2.54,3-4.12l3.42-7.43-1.88-4.65,5.17-7.48a2.55,2.55,0,0,0-1.6-4L85,96.45l-.42-1ZM53.15,44.33a6.26,6.26,0,1,1,3.55-8.19A6.31,6.31,0,0,1,53.15,44.33Z"/></clipPath><clipPath id="clip-path-2"><rect class="cls-2" x="36.87" y="17.89" width="59.74" height="113.19" transform="translate(-23.04 30.42) rotate(-22)"/></clipPath></defs><title>rebrand_helpcentre2_icons200x200</title><g class="cls-3"><g id="Layer_1" data-name="Layer 1"><path class="cls-4" d="M19.46,63.59c-.59,12.9-2.06,91-1,98.72a.72.72,0,0,0,.71.57c9.11.29,120.31,1.13,148.81-.21l10.68,0a.72.72,0,0,0,.76-.64c.12-7.87,1.27-85.92-.1-100a.71.71,0,0,0-.76-.59l-156.81.26A2.15,2.15,0,0,0,19.46,63.59Z"/><path class="cls-5" d="M195.37,167.24a9,9,0,0,0,0-1.27v-.33a.77.77,0,0,1,0,.15c-.31-2.95-2.31-5.71-5.85-5.81-2.74-.08-5.5,0-8.24,0h-146c-8.27,0-16.66-.42-24.93,0-3.48.18-5.45,2.92-5.78,5.84l0-.18v.43a7,7,0,0,0,0,1.21v0h0A5.78,5.78,0,0,0,10,173c1.88.14,3.82,0,5.7,0H189.93v0a5.86,5.86,0,0,0,5.44-5.69v0Z"/><path class="cls-6" d="M27.57,68.52C27,79.8,25.71,148,26.65,154.76a.64.64,0,0,0,.65.5c8.17.25,108,1,133.64-.19l9.59,0a.63.63,0,0,0,.68-.56c.11-6.87,1.15-75.05-.08-87.32a.65.65,0,0,0-.69-.52l-140.82.23A1.92,1.92,0,0,0,27.57,68.52Z"/><path class="cls-4" d="M88.52,160s-1.53,4.42,14,4.42S118,160,118,160Z"/><path class="cls-7" d="M148.76,96.3a22.92,22.92,0,0,1-5,14.5,20.73,20.73,0,0,1-16.35,7.82,23.31,23.31,0,0,1-16.5-7,21.79,21.79,0,0,1-6.45-15.31c0-12.23,8.53-21.72,20.76-21.72S148.76,84.07,148.76,96.3Z"/><circle class="cls-8" cx="126.76" cy="91.56" r="8.37"/><path class="cls-8" d="M143.75,110.8a20.73,20.73,0,0,1-16.35,7.82,23.31,23.31,0,0,1-16.5-7c4.25-8.35,15.86-9.92,15.86-9.92A18.65,18.65,0,0,1,143.75,110.8Z"/><g class="cls-9"><path class="cls-10" d="M89.79,87.94a2.55,2.55,0,0,0-1.6-4l-8.91-1.79c-.57-.11-2.56-5.56-2.9-6.29-.55-1.24-1.66-2.65-1.83-4-.2-1.69,1.15-2.28,2.34-3.48a22.44,22.44,0,0,0,6-9.29,23.71,23.71,0,0,0,.8-6.55c0-3.39.09-7.61-1.21-10.76-1.22-3-3.47-5.56-5.31-8.14a25.37,25.37,0,0,0-7.88-7.52A25.41,25.41,0,0,0,62,23a25.37,25.37,0,0,0-7.23-.1c-3.32.27-7,.49-10.07,1.83A18.53,18.53,0,0,0,40,27.89c-4.57,4-9.49,8.71-11.26,14.58C26.16,51,28.06,62,33.84,69a18.5,18.5,0,0,0,3.62,3.28A29.14,29.14,0,0,0,49,77c1.62.29,4.14-.12,5.61.45s1.75,2.32,2.3,3.68l3,7.41,7.28,18,3.65,9c.69,1.72,1.38,5.06,2.84,6.29s4.79,1.87,6.65,2.59c1.7.66,3.63,1.93,5.54,1.41s2.23-2.54,3-4.12l3.42-7.43-1.88-4.65,5.17-7.48a2.55,2.55,0,0,0-1.6-4L85,96.45l-.42-1ZM53.15,44.33a6.26,6.26,0,1,1,3.55-8.19A6.31,6.31,0,0,1,53.15,44.33Z"/><g class="cls-11"><rect class="cls-2" x="36.87" y="17.89" width="59.74" height="113.19" transform="translate(-23.04 30.42) rotate(-22)"/><g class="cls-12"><rect class="cls-2" x="21.61" y="4.82" width="87.83" height="140.74" transform="translate(-23.4 30.02) rotate(-22)"/></g></g></g><rect class="cls-8" x="92.76" y="127.08" width="67.68" height="18.46" rx="8.49"/><path class="cls-7" d="M106.38,134.11l-.52-3.78h3.56l-.58,3.78,3.46-1.59,1.11,3.36-3.74.52,2.6,2.66-2.81,2.08-1.87-3.32-1.8,3.32-3-2,2.7-2.63-3.67-.59,1.07-3.36Z"/><path class="cls-7" d="M125.36,134.11l-.52-3.78h3.57l-.59,3.78,3.46-1.59,1.11,3.36-3.74.52,2.6,2.66-2.81,2.08-1.87-3.32-1.8,3.32-3-2,2.7-2.63-3.67-.59,1.07-3.36Z"/><path class="cls-7" d="M144.34,134.11l-.52-3.78h3.57l-.59,3.78,3.46-1.59,1.12,3.36-3.75.52,2.6,2.66-2.81,2.08-1.87-3.32-1.8,3.32-3-2,2.7-2.63-3.67-.59,1.07-3.36Z"/></g></g></svg>