<svg width="231" height="58" viewBox="0 0 231 58" fill="none" xmlns="http://www.w3.org/2000/svg">
<path d="M76.5574 43.5005V16.9005H83.2454L90.8834 34.3805H91.0354L98.5974 16.9005H105.247V43.5005H100.117V25.0325H100.003L93.4294 39.7005H88.2994L81.8014 25.0325H81.6874V43.5005H76.5574ZM117.81 43.9565C115.986 43.9565 114.339 43.5385 112.87 42.7025C111.4 41.8665 110.235 40.7012 109.374 39.2065C108.538 37.7118 108.12 36.0018 108.12 34.0765C108.12 32.1258 108.55 30.4158 109.412 28.9465C110.273 27.4518 111.438 26.2865 112.908 25.4505C114.377 24.6145 116.011 24.1965 117.81 24.1965C119.634 24.1965 121.28 24.6145 122.75 25.4505C124.219 26.2865 125.372 27.4518 126.208 28.9465C127.069 30.4158 127.5 32.1258 127.5 34.0765C127.5 36.0272 127.069 37.7498 126.208 39.2445C125.346 40.7138 124.181 41.8665 122.712 42.7025C121.268 43.5385 119.634 43.9565 117.81 43.9565ZM117.772 39.6245C118.608 39.6245 119.355 39.4218 120.014 39.0165C120.698 38.6112 121.242 38.0032 121.648 37.1925C122.078 36.3565 122.294 35.3178 122.294 34.0765C122.294 32.8352 122.078 31.8092 121.648 30.9985C121.242 30.1625 120.698 29.5418 120.014 29.1365C119.355 28.7312 118.633 28.5285 117.848 28.5285C117.037 28.5285 116.29 28.7312 115.606 29.1365C114.922 29.5418 114.377 30.1625 113.972 30.9985C113.566 31.8092 113.364 32.8352 113.364 34.0765C113.364 35.3178 113.566 36.3565 113.972 37.1925C114.377 38.0032 114.909 38.6112 115.568 39.0165C116.252 39.4218 116.986 39.6245 117.772 39.6245ZM142.981 43.5005L134.773 33.1265L142.031 24.6525H148.111L138.687 35.2545V31.1885L149.365 43.5005H142.981ZM130.365 43.5005V16.7865H135.495V43.5005H130.365ZM158.893 43.9565C156.968 43.9565 155.258 43.5512 153.763 42.7405C152.294 41.9298 151.141 40.7898 150.305 39.3205C149.469 37.8512 149.051 36.1665 149.051 34.2665C149.051 32.2905 149.457 30.5552 150.267 29.0605C151.103 27.5405 152.256 26.3498 153.725 25.4885C155.22 24.6272 156.955 24.1965 158.931 24.1965C160.806 24.1965 162.453 24.6018 163.871 25.4125C165.29 26.2232 166.405 27.3378 167.215 28.7565C168.026 30.1498 168.431 31.7332 168.431 33.5065C168.431 33.7598 168.431 34.0512 168.431 34.3805C168.431 34.6845 168.406 35.0012 168.355 35.3305H152.699V32.1765H163.225C163.149 30.9858 162.706 30.0358 161.895 29.3265C161.11 28.6172 160.122 28.2625 158.931 28.2625C158.045 28.2625 157.234 28.4652 156.499 28.8705C155.765 29.2505 155.182 29.8458 154.751 30.6565C154.321 31.4418 154.105 32.4425 154.105 33.6585V34.7605C154.105 35.7992 154.308 36.6985 154.713 37.4585C155.119 38.1932 155.676 38.7632 156.385 39.1685C157.12 39.5738 157.943 39.7765 158.855 39.7765C159.793 39.7765 160.578 39.5738 161.211 39.1685C161.845 38.7378 162.326 38.1932 162.655 37.5345H167.899C167.519 38.7252 166.911 39.8145 166.075 40.8025C165.239 41.7652 164.213 42.5378 162.997 43.1205C161.781 43.6778 160.413 43.9565 158.893 43.9565ZM180.422 43.9565C178.497 43.9565 176.774 43.6272 175.254 42.9685C173.734 42.3098 172.543 41.3472 171.682 40.0805C170.821 38.8138 170.365 37.2812 170.314 35.4825H175.748C175.799 36.2678 176.001 36.9772 176.356 37.6105C176.736 38.2438 177.268 38.7505 177.952 39.1305C178.636 39.4852 179.447 39.6625 180.384 39.6625C181.169 39.6625 181.866 39.5485 182.474 39.3205C183.082 39.0672 183.551 38.7125 183.88 38.2565C184.235 37.7752 184.412 37.1798 184.412 36.4705C184.412 35.7105 184.222 35.0772 183.842 34.5705C183.487 34.0385 182.981 33.5952 182.322 33.2405C181.663 32.8858 180.916 32.5692 180.08 32.2905C179.269 31.9865 178.408 31.6825 177.496 31.3785C175.368 30.6438 173.734 29.7065 172.594 28.5665C171.479 27.4012 170.922 25.8685 170.922 23.9685C170.922 22.3978 171.302 21.0552 172.062 19.9405C172.847 18.8258 173.911 17.9645 175.254 17.3565C176.622 16.7485 178.193 16.4445 179.966 16.4445C181.765 16.4445 183.335 16.7612 184.678 17.3945C186.046 18.0025 187.123 18.8892 187.908 20.0545C188.693 21.2198 189.111 22.5878 189.162 24.1585H183.652C183.652 23.4998 183.487 22.9172 183.158 22.4105C182.829 21.8785 182.385 21.4605 181.828 21.1565C181.271 20.8525 180.599 20.7005 179.814 20.7005C179.155 20.7005 178.56 20.8018 178.028 21.0045C177.496 21.2072 177.065 21.5238 176.736 21.9545C176.432 22.3852 176.28 22.9425 176.28 23.6265C176.28 24.2345 176.419 24.7665 176.698 25.2225C177.002 25.6532 177.42 26.0332 177.952 26.3625C178.509 26.6665 179.168 26.9705 179.928 27.2745C180.688 27.5532 181.524 27.8445 182.436 28.1485C183.779 28.6045 185.007 29.1492 186.122 29.7825C187.237 30.3905 188.123 31.1885 188.782 32.1765C189.466 33.1645 189.808 34.4565 189.808 36.0525C189.808 37.4458 189.441 38.7505 188.706 39.9665C187.997 41.1572 186.945 42.1198 185.552 42.8545C184.159 43.5892 182.449 43.9565 180.422 43.9565ZM201.755 43.9565C199.829 43.9565 198.119 43.5512 196.625 42.7405C195.155 41.9298 194.003 40.7898 193.167 39.3205C192.331 37.8512 191.913 36.1665 191.913 34.2665C191.913 32.2905 192.318 30.5552 193.129 29.0605C193.965 27.5405 195.117 26.3498 196.587 25.4885C198.081 24.6272 199.817 24.1965 201.793 24.1965C203.667 24.1965 205.314 24.6018 206.733 25.4125C208.151 26.2232 209.266 27.3378 210.077 28.7565C210.887 30.1498 211.293 31.7332 211.293 33.5065C211.293 33.7598 211.293 34.0512 211.293 34.3805C211.293 34.6845 211.267 35.0012 211.217 35.3305H195.561V32.1765H206.087C206.011 30.9858 205.567 30.0358 204.757 29.3265C203.971 28.6172 202.983 28.2625 201.793 28.2625C200.906 28.2625 200.095 28.4652 199.361 28.8705C198.626 29.2505 198.043 29.8458 197.613 30.6565C197.182 31.4418 196.967 32.4425 196.967 33.6585V34.7605C196.967 35.7992 197.169 36.6985 197.575 37.4585C197.98 38.1932 198.537 38.7632 199.247 39.1685C199.981 39.5738 200.805 39.7765 201.717 39.7765C202.654 39.7765 203.439 39.5738 204.073 39.1685C204.706 38.7378 205.187 38.1932 205.517 37.5345H210.761C210.381 38.7252 209.773 39.8145 208.937 40.8025C208.101 41.7652 207.075 42.5378 205.859 43.1205C204.643 43.6778 203.275 43.9565 201.755 43.9565ZM213.935 43.5005V16.7865H219.065V43.5005H213.935ZM222.842 43.5005V16.7865H227.972V43.5005H222.842Z" fill="white"/>
<mask id="mask0_1219_43368" style="mask-type:alpha" maskUnits="userSpaceOnUse" x="0" y="0" width="58" height="58">
<circle cx="28.8574" cy="29" r="28.5918" fill="#C4C4C4"/>
</mask>
<g mask="url(#mask0_1219_43368)">
<circle cx="15.2553" cy="-4.66944" r="23.7214" transform="rotate(-22 15.2553 -4.66944)" fill="#4A3AFF"/>
<circle cx="42.4623" cy="62.6685" r="23.7214" transform="rotate(-22 42.4623 62.6685)" fill="#4A3AFF"/>
<circle cx="-4.81014" cy="42.603" r="23.7214" transform="rotate(-22 -4.81014 42.603)" fill="#9328FF"/>
<circle cx="61.9037" cy="13.8545" r="23.7214" transform="rotate(-22 61.9037 13.8545)" fill="#9328FF"/>
</g>
</svg>
