<svg xmlns="http://www.w3.org/2000/svg" viewBox="0 0 200 200"><defs><style>.cls-1{isolation:isolate;}.cls-2,.cls-5{fill:#33d18d;}.cls-2,.cls-3,.cls-6,.cls-7{mix-blend-mode:multiply;}.cls-4{fill:#008f79;}.cls-6,.cls-8{fill:#ff2636;}.cls-7{fill:#921720;}.cls-9{fill:#009e5a;}.cls-10{fill:#33f2d5;}</style></defs><title>rebrand_helpcentre2_icons200x200</title><g class="cls-1"><g id="Layer_1" data-name="Layer 1"><g id="_3" data-name="3"><path class="cls-2" d="M107.42,47.11s-3.41,7-11.75,17.35c-7,8.7-19.16,19.84-19.86,30.07l27.76,12.73s8.67-22,14.84-26.61S136.73,55.2,136.73,55.2Z"/><path class="cls-2" d="M76.47,35.06s-.75,7-4.66,18.3C68.51,62.88,61.65,76,64.18,84.91L91.59,87.2S92.22,65.93,96,60.12,103.77,33,103.77,33Z"/><g class="cls-3"><path class="cls-4" d="M64.15,101c2.79,9.17-3.31,19.16-12.48,22s-17.93-2.66-20.73-11.83,3.3-19.15,12.47-22S61.35,91.87,64.15,101Z"/><path class="cls-5" d="M60.41,102.18c2.16,7.11-2.63,15.22-9.74,17.38s-13.82-2.42-16-9.53,2.56-14.84,9.66-17S58.24,95.08,60.41,102.18Z"/><path class="cls-4" d="M44.7,95.67c.71-.22,1.18.25,1.41.86.17.46.26.4.72.32a5.49,5.49,0,0,1,1.46,0c1,.1,2.83,0,3.22,1.22a1.41,1.41,0,0,1-1,1.76,1.55,1.55,0,0,1-.8,0,7.32,7.32,0,0,0-2.83-.3,11,11,0,0,0,.75,2.54,12,12,0,0,0,.57,1.88c.16.3.17.25.54.24h.81a8.78,8.78,0,0,1,3.75.77,2.63,2.63,0,0,1,.83.61,6,6,0,0,1,.36.6,5.86,5.86,0,0,1,.85,2.5,3.3,3.3,0,0,1-.08.77,4.92,4.92,0,0,1-.51,2c-.36.45-.86.85-1.26,1.27a4.91,4.91,0,0,1-1,.81c-.2.12-1,.24-1.11.39s0,.33.08.45l.33,1.08a1.08,1.08,0,0,1-.73,1.37,1.11,1.11,0,0,1-1.39-.72L49.42,115c-.06-.21-.07-.39-.27-.47s-.93.18-1.19.23a5.9,5.9,0,0,1-.93.11,5.52,5.52,0,0,1-1.63-.38c-.55-.17-1.17-.13-1.69-.3a1.41,1.41,0,0,1,.34-2.78,10.52,10.52,0,0,1,1.22.34c.56.08,1.12.21,1.68.3a5.91,5.91,0,0,0,1.19.08c.54,0,.45-.13.3-.6-.24-.69-.47-1.38-.7-2.08s-.32-1.4-.58-2c-.11-.24,0-.21-.31-.22a2.39,2.39,0,0,0-.59.08,6,6,0,0,1-.93.14,3,3,0,0,1-.73-.14,9,9,0,0,1-1.44-.47,5.54,5.54,0,0,1-2.39-2.28,2.83,2.83,0,0,1-.48-1.38,12,12,0,0,1,.11-1.8,4,4,0,0,1,1-2.11,5.45,5.45,0,0,1,.82-.69,6.78,6.78,0,0,1,1.24-.81c.49-.23.69-.14.51-.71A1.11,1.11,0,0,1,44.7,95.67Zm1.55,8.6a10.07,10.07,0,0,0-.54-1.83l-.57-1.88c0-.11-.09-.53-.21-.57s-.62.26-.79.39-.63.32-.79.65a1.93,1.93,0,0,0-.16.67,3.37,3.37,0,0,0,0,1C43.56,104,45.12,104.38,46.25,104.27Zm3,2.81,1.35,4.44c1.51-.64,2.13-1.68,1.77-2.85S51.28,107.1,49.22,107.08Z"/></g><g class="cls-3"><path class="cls-4" d="M162.9,49.07c-3.47,7-12.72,9.57-19.76,6.09s-9.21-11.65-5.73-18.69,12.73-9.57,19.77-6.09S166.38,42,162.9,49.07Z"/><path class="cls-5" d="M160,47.65c-2.69,5.45-10.1,7.59-15.56,4.9s-6.88-9.21-4.18-14.66,9.85-7.42,15.3-4.72S162.73,42.19,160,47.65Z"/><path class="cls-4" d="M154.32,34.94a.93.93,0,0,1,.36,1.31c-.16.37-.07.39.25.6a4.22,4.22,0,0,1,.87.82c.56.63,1.71,1.56,1.24,2.53a1.16,1.16,0,0,1-2,.06,6,6,0,0,0-1.52-1.76,9.46,9.46,0,0,0-1,1.93,8.36,8.36,0,0,0-.71,1.44c-.08.27,0,.25.18.45s.33.29.49.45a7,7,0,0,1,1.8,2.56,2,2,0,0,1,.16.83,5.59,5.59,0,0,1-.12.56,5.12,5.12,0,0,1-.9,2,2.43,2.43,0,0,1-.49.41c-.39.29-.91.84-1.41.9a14.34,14.34,0,0,1-1.47,0,4,4,0,0,1-1,0c-.18,0-.74-.43-.88-.4s-.15.23-.2.32l-.41.83a.89.89,0,0,1-1.2.41.92.92,0,0,1-.43-1.22c.14-.27.28-.55.41-.83s.18-.27.1-.42-.65-.42-.83-.54a3.92,3.92,0,0,1-.62-.45,4.63,4.63,0,0,1-.76-1.14c-.23-.42-.62-.74-.84-1.13a1.13,1.13,0,0,1-.06-1.15,1.15,1.15,0,0,1,1.83-.32c.25.25.31.61.53.89s.55.75.84,1.12a4.51,4.51,0,0,0,.66.72c.34.29.34.17.52-.19.24-.55.49-1.09.74-1.63a17,17,0,0,0,.78-1.53c.08-.2.12-.13-.05-.31a2.86,2.86,0,0,0-.4-.28,4.55,4.55,0,0,1-.64-.44,2.43,2.43,0,0,1-.35-.49,6.77,6.77,0,0,1-.59-1.09A4.45,4.45,0,0,1,147,38a2.3,2.3,0,0,1,.49-1.1,9.18,9.18,0,0,1,1.07-1,3.22,3.22,0,0,1,1.77-.72,4.24,4.24,0,0,1,.87,0,6.16,6.16,0,0,1,1.2.21c.42.14.48.31.7-.13A.91.91,0,0,1,154.32,34.94Zm-3.9,6a8.76,8.76,0,0,0,.71-1.4l.71-1.44c0-.09.24-.37.19-.46s-.51-.19-.69-.21a1.8,1.8,0,0,0-.83-.06,1.67,1.67,0,0,0-.47.31,2.48,2.48,0,0,0-.56.65C149,39.28,149.68,40.38,150.42,41Zm.19,3.34-1.68,3.41c1.26.46,2.21.18,2.65-.71S151.83,45.45,150.61,44.29Z"/></g><path class="cls-6" d="M139,93.71c-4.12-2.26-27.61,2.41-33.42,3.16-14.42,1.87-29.07,3-43.32,5.91a2.08,2.08,0,0,0-.81.48,1.61,1.61,0,0,0-.58.33c-4.74,5,0,17.46.93,24.65,1.29,9.8,1.69,12.36,2.79,22.18.47,4.23-.18,13.86,2.54,16.85,3.89,4.28,18.32-1.3,22.79-1.83,19.19-2.3,35.17-5.2,54.4-7.06.42,0,5.44-.21,4.64-6.3-2.09-15.94-2.7-20.19-4.72-36.18C143.29,108.47,143.76,96.33,139,93.71Z"/><path class="cls-7" d="M148.91,119.05c-.25-2.32.32-5-2.15-5.87-2.3-.86-10.24,1.2-12.42,1.49-3.56.48-7.57.51-10.82,2.25-5.51,3-7.12,10.39-2.12,14.78,2.54,2.23,5.15,2.22,8.33,1.83,4.77-.59,14.68-1.09,19.14-3a1.52,1.52,0,0,0,.62-.48l0,0,.08-.09a1,1,0,0,0,.17-.18C151.34,127,149.21,121.89,148.91,119.05Z"/><path class="cls-8" d="M128,129.47a4.52,4.52,0,0,1-3.35-.82,5.13,5.13,0,0,1,2.52-8.89,4.59,4.59,0,0,1,5.31,4,.77.77,0,0,0,0,.15c.22,3.22-1.53,5.16-4.5,5.55Z"/><path class="cls-9" d="M108.83,65.46s-8-1.78-12,5.78,4.45,10.22,4.45,10.22,8.45,1.34,11.56-6.22S108.83,65.46,108.83,65.46Z"/><path class="cls-9" d="M87.48,50.34s-8-1.78-12,5.78,4.44,10.23,4.44,10.23,8.45,1.33,11.57-6.23S87.48,50.34,87.48,50.34Z"/><g class="cls-3"><path class="cls-10" d="M151,84.83c-.05,2.26-2.32,3.19-3.95,4A8.79,8.79,0,0,0,144,91.05c-.84,1.12-.6,2.35-1.2,3.52a4.1,4.1,0,0,1-2,2c-1.74.6-3.08-.66-3.57-2.29-.61-1.94-.49-3.93-2.54-5.08-1.09-.6-2.56-.54-3.67-1.22-2.33-1.42-1.62-3.72.4-5.13,0,0,0,0,0,0a1.22,1.22,0,0,1,.76-.39c4.63-.89,3.76-4.17,6-6.76,1.69-1.91,3.15-1.28,3.94.62,1.3,3.06,3.31,4,6.07,5.52C149.51,82.52,151.06,83.16,151,84.83Z"/><path class="cls-10" d="M63.74,44.35c0,2.2-2.24,3.1-3.81,3.92A8.41,8.41,0,0,0,57,50.34c-.79,1.07-.57,2.24-1.15,3.36a3.94,3.94,0,0,1-1.94,1.94c-1.69.59-3-.61-3.49-2.21-.57-1.86-.46-3.76-2.42-4.86-1-.59-2.46-.52-3.52-1.17-2.26-1.37-1.56-3.6.38-5h0a1.17,1.17,0,0,1,.76-.4c4.41-.84,3.59-4,5.77-6.46,1.62-1.86,3.09-1.26,3.87.59,1.23,2.93,3.15,3.79,5.79,5.27C62.29,42.13,63.77,42.74,63.74,44.35Z"/><path class="cls-10" d="M48.67,138.38c0,1.72-1.77,2.44-3,3.1A5.94,5.94,0,0,0,43.59,143c-.54.76-.4,1.66-.81,2.46A3.22,3.22,0,0,1,41.17,147a2.25,2.25,0,0,1-3-1.72c-.42-1.32-.45-2.81-1.69-3.5-.79-.46-1.87-.41-2.67-.9-1.77-1.08-1.25-2.85.25-3.94a1.23,1.23,0,0,1,.79-.41c3.11-.6,2.54-2.93,4.09-4.7,1.34-1.52,2.75-1.16,3.43.42.9,2.15,2.32,2.77,4.26,3.86C47.57,136.61,48.71,137.12,48.67,138.38Z"/></g></g></g></g></svg>