<svg xmlns="http://www.w3.org/2000/svg" viewBox="0 0 200 200"><defs><style>.cls-1{isolation:isolate;}.cls-2{fill:#932492;}.cls-3{fill:#fff;}.cls-4{fill:#ff2636;}.cls-4,.cls-7{mix-blend-mode:multiply;}.cls-5{fill:#c5c5c6;}.cls-6{fill:#f0f1f1;}.cls-7{fill:#33d18d;}</style></defs><title>rebrand_helpcentre2_icons200x200</title><g class="cls-1"><g id="Layer_1" data-name="Layer 1"><path class="cls-2" d="M104,36.69c-9.36,4.88-64,33.41-69.18,37.19a.52.52,0,0,0-.15.67c3,5.65,39.06,74.69,49.91,91.47l3.72,6.49a.54.54,0,0,0,.72.2c5.62-3.11,61.4-34.08,70.9-40.61a.53.53,0,0,0,.15-.7c-3.66-6.38-47.59-83-54-94.08A1.59,1.59,0,0,0,104,36.69Z"/><path class="cls-3" d="M43.44,76.71c8.55-4.8,54-30.32,59.61-32.47a.52.52,0,0,1,.66.24l47,85.15a1.6,1.6,0,0,1-.6,2.16L92.26,165a1.61,1.61,0,0,1-2.2-.62L42.83,78.88A1.6,1.6,0,0,1,43.44,76.71Z"/><path class="cls-4" d="M68.49,46.34s-6.95,4-1.24,11.78c0,0-8.07,5.24-5.08,11.53l27.65-14s-3.59-8.4-12.39-3.36C77.43,52.28,75,42.62,68.49,46.34Z"/><path class="cls-5" d="M77.59,86.34l.26.46c.22.38.6.58.85.43l21-12,8-4.58c.26-.14.28-.57.06-1h0c-.22-.38-.6-.58-.85-.44L84.12,81.66l-6.48,3.72C77.39,85.53,77.37,86,77.59,86.34Z"/><path class="cls-5" d="M66.93,104.76l.26.45a.8.8,0,0,0,1.1.3l32.17-18.45,12.26-7a.8.8,0,0,0,.3-1.1h0a.8.8,0,0,0-1.09-.3C107.05,81.34,78,97.47,77.17,98l-10,5.7A.8.8,0,0,0,66.93,104.76Z"/><path class="cls-5" d="M72.24,114l.26.45a.8.8,0,0,0,1.1.3l32.17-18.45,12.26-7a.8.8,0,0,0,.3-1.1h0a.8.8,0,0,0-1.09-.3L82.48,107.21l-10,5.71A.8.8,0,0,0,72.24,114Z"/><path class="cls-5" d="M77.55,123.28l.26.45a.8.8,0,0,0,1.1.3l32.17-18.45,12.26-7a.8.8,0,0,0,.3-1.1h0a.81.81,0,0,0-1.09-.31L87.79,116.47l-10,5.71A.8.8,0,0,0,77.55,123.28Z"/><path class="cls-5" d="M82.86,132.54l.26.45a.8.8,0,0,0,1.1.3l32.17-18.45,12.26-7a.81.81,0,0,0,.3-1.1h0a.81.81,0,0,0-1.09-.31L93.1,125.73l-9.95,5.71A.8.8,0,0,0,82.86,132.54Z"/><path class="cls-5" d="M88.17,141.8l.26.45a.8.8,0,0,0,1.1.3L121.7,124.1l12.26-7a.81.81,0,0,0,.3-1.1h0a.81.81,0,0,0-1.09-.31L98.41,135l-10,5.71A.8.8,0,0,0,88.17,141.8Z"/><path class="cls-5" d="M93.47,151.06l.26.45a.81.81,0,0,0,1.1.3L127,133.36l12.26-7a.81.81,0,0,0,.3-1.1h0a.81.81,0,0,0-1.09-.31l-34.76,19.33-10,5.71A.81.81,0,0,0,93.47,151.06Z"/><path class="cls-5" d="M72.41,80.53A11.33,11.33,0,0,1,73.82,88a10.22,10.22,0,0,1-5.08,7.36,11.45,11.45,0,0,1-8.79,1,10.73,10.73,0,0,1-6.52-5C50.42,86.17,51.75,80,57,77S69.4,75.29,72.41,80.53Z"/><circle class="cls-6" cx="61.82" cy="83.9" r="4.13" transform="translate(-2.62 1.99) rotate(-1.81)"/><path class="cls-6" d="M73.82,88a10.22,10.22,0,0,1-5.08,7.36,11.45,11.45,0,0,1-8.79,1c-.23-4.61,4.36-8.14,4.36-8.14A9.21,9.21,0,0,1,73.82,88Z"/><path class="cls-7" d="M143.82,73.21S126.33,90,112,75.61c-4.5-4.55-6.76-8.89-7.46-12.91a20.61,20.61,0,0,1,2.9-14h0a37.52,37.52,0,0,1,4-5.37,4.31,4.31,0,0,1,.74-.67,18.57,18.57,0,0,1,6.54-3.28c5.48-1.87,8.68-2.61,11.66-2.51,5.57.19,11.93,2.07,17.73,13.5S143.82,73.21,143.82,73.21Z"/><path class="cls-3" d="M139.2,49.57,135,47.76c-1-.43-2.72.51-3.12,1.44-1.71,4.08-3.85,8.42-7,11.66a51,51,0,0,0-5.36-3.47,2.45,2.45,0,0,0-2.1.27,2.51,2.51,0,0,0-1.11.71l-2.47,3.29c-.22.31-.45.87,0,1.15,1.62,1.07,3.21,2.2,4.75,3.4s3.12,3.45,4.87,4c2.14.61,4.31-1.41,5.62-2.79,4.47-4.71,7.63-11.1,10.58-16.84C139.87,50.08,139.59,49.74,139.2,49.57Z"/></g></g></svg>