<svg xmlns="http://www.w3.org/2000/svg" viewBox="0 0 200 200"><defs><style>.cls-1{isolation:isolate;}.cls-2{fill:#ff2636;}.cls-3{fill:#ffd4d7;}.cls-4,.cls-6{fill:#3596ff;}.cls-4,.cls-5,.cls-7{mix-blend-mode:multiply;}.cls-7{fill:#00c671;}.cls-8{fill:#eff0f0;}</style></defs><title>rebrand_helpcentre2_icons200x200</title><g class="cls-1"><g id="Layer_1" data-name="Layer 1"><path class="cls-2" d="M114.13,157.81l.61,18.52.6,4.84-48.44-.3.91-10.78,2.82-12.89S97.82,161.63,114.13,157.81Z"/><path class="cls-3" d="M73.1,160s.45-19.79,5.59-28.55a47.5,47.5,0,0,1,12.68-13.89s7.86-3.63,9.67-8.92,10.22-8.7,10.22-8.7,5.34-2.32,4.28,5.08a17.48,17.48,0,0,1-5.89,11s-4.57,5-1,9.91,24.89-2.35,24.89-2.35,29.73-13.3,34.72-13,6.94,5.29-.15,7.7-16.62,12.54-16.62,12.54a10.28,10.28,0,0,1-6,5.13c-4.23,1.21-28.7,11.33-31,16.32a64.91,64.91,0,0,0-3.32,8.91S73.1,159.52,73.1,160Z"/><path class="cls-4" d="M99.68,69.59,91.11,56.34A1.75,1.75,0,0,1,91.73,54c11-9.32,21.7-19.24,37.63-15,1.31.35,3.39,1.59,2.94,3.26-.6,2.26,5.61,13.44,8.59,2.3.45-1.67,2.89-1.7,4.18-1.35,14.32,3.84,19.05,19.61,24,31.47a1.74,1.74,0,0,1-.63,2.33l-14,7.19c-2,1-5.18.35-6.16-1.82q-4.24,16.41-8.5,32.82c-.45,1.76-2.92,1.93-4.84,1.17l-36.18-9.69c-1.31-.35-3.41-1.6-3-3.27q4.39-15.86,8.78-31.71A5.33,5.33,0,0,1,99.68,69.59Z"/><g class="cls-5"><path class="cls-6" d="M125.33,49.7c.17.14.34.28.52.41C124.76,49.35,124.89,49.42,125.33,49.7Z"/><path class="cls-6" d="M121.4,42.46c.14-.54.29-1.08.44-1.62a.13.13,0,0,1,0-.06v0a26.74,26.74,0,0,1,1-3.14c.27-.68,1.48-.55,2-.52a53,53,0,0,1,22.71,6.08c.48.25,1.59.74,1.49,1.47a27.72,27.72,0,0,1-.69,3.23v0s0,0,0,.05c-.14.55-.29,1.09-.43,1.63a.79.79,0,0,1-.54.51c-1.59,2.48-4.45,3.69-7.54,3.9a3.54,3.54,0,0,1-.65,0H139a28,28,0,0,1-8.35-1.6,18,18,0,0,1-4-1.81c-.23-.16-.89-.6-1.3-.86a9,9,0,0,1-3.73-6.54A.77.77,0,0,1,121.4,42.46Z"/></g><path class="cls-2" d="M120.28,41.47c.32-1.59,3.67-3.93,5.27-4.18h.08c.53,0,1.72.2,1.74.65.13,4.68,1.85,10.33,6,12.88,4.92-.11,9.23-4.13,11.69-8.13.24-.39,1.43,0,1.85.31l.05,0c1.15.93,3,4.73,2.55,6.17-.29.91-1.67,2-2.28,2.73a34,34,0,0,1-4.69,4.52c-1.8,1.36-3.42,2.28-5.33.79A24.91,24.91,0,0,1,133,52.45a22.35,22.35,0,0,1-6.24,2c-2.45.26-3.38-1.62-4.2-3.7a33,33,0,0,1-1.6-5.61C120.74,44.24,120.07,42.46,120.28,41.47Z"/><path class="cls-7" d="M42.73,25.67c.76-.59,2.79-.08,4.32.61a4.31,4.31,0,0,1,1.66.74c5.88,5.71,14.72-1.87,15.57-7.62.12-.74,2.29-.36,2.63-.3a48.56,48.56,0,0,1,9.86,3l.37.07a4.32,4.32,0,0,1,1.7.88c7,3.42,12.33,8.34,19.55,14.54a.7.7,0,0,1,.31.61l-8,12.45c-.92,1.43-4.56-.11-5.87-.95.4,1.4.8,2.8,1.19,4.2,0,.05.07.09.08.14l1.17,4.35C92.13,61,94,67.05,96.93,72.24c.2.37-.23.62-.53.66,2.55-.33,10.73,17.7,12.28,20.49h0c6.49,11.72-32.5,18.65-39.4,19.77-7.52,1.22-23.24,4.44-23.44-6.6h0q-.2-11.85-.39-23.69h0c-.07-4.89-.15-9.7.17-14.5C45.67,67.64,47,67,47,66.53a15.67,15.67,0,0,0-.6-4.09l0,.09c-.55,1.3-4.33-.07-5.09-.47L28.09,55.28c-.3-.15-1.58-.69-1.38-1.26C31,41.83,32.54,33.55,42.73,25.67Z"/><g class="cls-5"><path class="cls-2" d="M65.22,20.52a1.61,1.61,0,0,1,2.08-.25c1.63,1.26,4.16,3.94,1.87,7.16s-7.21,2.73-10,2.2a1.08,1.08,0,0,1-.65-1.86Z"/><path class="cls-2" d="M59.08,30.34a1.91,1.91,0,0,1-1.5-1.24A1.83,1.83,0,0,1,58,27.28L64.68,20a2.35,2.35,0,0,1,3.07-.34c3.2,2.49,3.93,5.46,2,8.16-1.61,2.26-4.38,2.87-6.94,2.87A20,20,0,0,1,59.08,30.34ZM65.75,21l-6.66,7.25a.38.38,0,0,0-.12.38.48.48,0,0,0,.38.27c2.58.51,7.21.92,9.22-1.91,1.83-2.57.08-4.76-1.71-6.15a.63.63,0,0,0-.41-.13A1,1,0,0,0,65.75,21Z"/><path class="cls-2" d="M47.74,25.2A1.64,1.64,0,0,0,45.8,26c-.77,1.9-1.63,5.49,2,7.13s7.6-1.24,9.72-3.07a1.09,1.09,0,0,0-.36-1.94Z"/><path class="cls-2" d="M47.47,33.82c-3-1.37-3.87-4.31-2.34-8.06A2.35,2.35,0,0,1,48,24.51l9.38,2.95a1.82,1.82,0,0,1,1.29,1.35A1.9,1.9,0,0,1,58,30.64c-1.76,1.54-4.83,3.73-8,3.73A5.87,5.87,0,0,1,47.47,33.82Zm.05-7.92a.9.9,0,0,0-1,.41c-.86,2.1-1.28,4.88,1.59,6.19,3.16,1.44,7-1.24,8.94-3a.48.48,0,0,0,.2-.43.4.4,0,0,0-.3-.26l-9.39-3Z"/></g><circle class="cls-8" cx="59.76" cy="35.12" r="1.44"/><circle class="cls-8" cx="61.62" cy="42.07" r="1.44"/><path class="cls-2" d="M86.26,57.68a55.63,55.63,0,0,1-38,9L46.9,63s12.73,1.6,20.55-.86S85,53.92,85,53.92Z"/></g></g></svg>