<?xml version="1.0" encoding="utf-8"?>
<!-- Generator: Adobe Illustrator 27.0.1, SVG Export Plug-In . SVG Version: 6.00 Build 0)  -->
<svg version="1.1" id="Layer_1" xmlns="http://www.w3.org/2000/svg" xmlns:xlink="http://www.w3.org/1999/xlink" x="0px" y="0px"
	 viewBox="0 0 500 500" style="enable-background:new 0 0 500 500;" xml:space="preserve">
<style type="text/css">
	.st0{fill:#33D18D;}
	.st1{fill:#FFFFFF;}
	.st2{fill:#FF2636;}
	.st3{enable-background:new    ;}
	.st4{fill:#027CFF;}
</style>
<g>
	<g>
		<ellipse class="st0" cx="183.7" cy="268.29" rx="138.7" ry="119.99"/>
	</g>
	<path class="st0" d="M95.89,317.63c0,0-3.57,37.65-50.89,56.64c0,0,59.61,20.64,115.01-30.16L95.89,317.63z"/>
	
		<ellipse transform="matrix(0.0985 -0.9951 0.9951 0.0985 -166.8679 352.3728)" class="st1" cx="111.06" cy="268.29" rx="17.01" ry="17.01"/>
	<circle class="st1" cx="183.7" cy="268.29" r="17.01"/>
	<circle class="st1" cx="256.33" cy="268.29" r="17.01"/>
	<g>
		<g>
			<g>
				<ellipse class="st2" cx="279.54" cy="120.46" rx="81.62" ry="70.61"/>
			</g>
			<path class="st2" d="M331.21,149.49c0,0,2.1,22.15,29.94,33.33c0,0-35.07,12.14-67.68-17.75L331.21,149.49z"/>
		</g>
		<g class="st3">
			<path class="st1" d="M271.88,129.67l-0.7-14.62l1.09-1.19c1.92,0,3.7-0.12,5.32-0.35c1.62-0.23,3.03-0.66,4.23-1.29
				c1.19-0.63,2.14-1.51,2.83-2.64c0.7-1.13,1.04-2.62,1.04-4.48c0-2.05-0.55-3.65-1.64-4.77c-1.09-1.13-2.6-1.69-4.53-1.69
				c-2.19,0-3.85,0.73-4.97,2.19c-1.13,1.46-1.63,3.32-1.49,5.57h-15.22V105c0-3.18,0.6-5.94,1.79-8.26
				c1.19-2.32,2.8-4.24,4.83-5.77c2.02-1.53,4.39-2.67,7.11-3.43c2.72-0.76,5.57-1.14,8.56-1.14c2.79,0,5.47,0.42,8.06,1.24
				c2.59,0.83,4.84,2.01,6.76,3.53c1.92,1.53,3.46,3.37,4.63,5.52c1.16,2.16,1.74,4.59,1.74,7.31v1c0,2.45-0.42,4.64-1.24,6.57
				c-0.83,1.92-1.94,3.62-3.33,5.07c-1.39,1.46-2.97,2.69-4.72,3.68c-1.76,0.99-3.57,1.79-5.42,2.39l-0.5,6.96H271.88z
				 M288.59,144.59c0,2.79-0.96,4.92-2.88,6.42s-4.24,2.24-6.96,2.24c-2.65,0-4.92-0.75-6.81-2.24c-1.89-1.49-2.84-3.63-2.84-6.42
				v-0.8c0-2.79,0.95-4.94,2.84-6.47c1.89-1.53,4.16-2.29,6.81-2.29c2.72,0,5.04,0.76,6.96,2.29c1.92,1.53,2.88,3.68,2.88,6.47
				V144.59z"/>
		</g>
	</g>
	<g>
		<g>
			<g>
				<ellipse class="st4" cx="361.93" cy="369.64" rx="93.07" ry="80.51"/>
			</g>
			<path class="st4" d="M420.85,402.74c0,0,2.39,25.26,34.15,38.01c0,0-40,13.85-77.17-20.24L420.85,402.74z"/>
		</g>
		<g>
			<g>
				<g>
					<g>
						<g>
							<g>
								<g>
									<g>
										<path class="st1" d="M308.67,376.85c-3.23,7.79,3.17,13.52,3.17,13.52c1.09,11.56,11.45,11.88,11.45,11.88
											c21.12,3.01,31.56,2.75,40.75,2.37c6.27-0.26,18.4,3.82,20.89-3.47c2.49-7.29,3.56-45.09,3.56-45.09
											c-4.78,0.37-9.98-1.07-9.98-1.07c-5.75-3.35-14.67-8.87-14.67-8.87s-1.27-1.23-7.77-5.45
											c-5.49-3.62-11.53-20.35-14.04-21.61c-1.81-0.93-4.15-0.55-5.59,0.94c-9.25,9.36,2.5,27.03,2.5,27.03
											s-10.96,0.02-23.09,0.3c-15.26,0.37-8.73,14.77-8.73,14.77C302.71,370.84,308.67,376.85,308.67,376.85z"/>
										<path class="st1" d="M416.41,352.63c0,0-15.03-1.21-22.86,0.05l-3.26,56.25c0,0,18.33,4.09,22.36-2.88
											S416.41,352.63,416.41,352.63z"/>
									</g>
								</g>
							</g>
						</g>
					</g>
				</g>
			</g>
		</g>
	</g>
</g>
</svg>
