<svg xmlns="http://www.w3.org/2000/svg" viewBox="0 0 200 200"><defs><style>.cls-1{isolation:isolate;}.cls-2{fill:#ff2636;}.cls-2,.cls-4{mix-blend-mode:multiply;}.cls-3{fill:#eff0f0;}.cls-4{fill:#00d9ff;}</style></defs><title>rebrand_helpcentre2_icons200x200</title><g class="cls-1"><g id="Layer_1" data-name="Layer 1"><path class="cls-2" d="M101,45.14c-8.11-6.8-21.75-9.44-31.66-9.85C49.72,34.49,28,42,20.05,60.92a50.14,50.14,0,0,0,8.6,52.17l.49.43c-1.87,4.07-5.12,9-10.23,11.58a1.93,1.93,0,0,0,.55,3.64c8.76,1.38,14.76-4.42,22-5.26,8.23-1,17.47,4.82,25.95,5.08,6.63.2,12.94-2.71,18.84-5.74,14.76-7.58,25.29-16.66,28.41-33.59a49.74,49.74,0,0,0-11.29-41.78A21.69,21.69,0,0,0,101,45.14Z"/><path class="cls-3" d="M63.23,92.37A4.32,4.32,0,0,1,59.56,90a7.15,7.15,0,0,1,0-4.68c.39-1.5.94-3.3,2.22-4.3a19.94,19.94,0,0,1,3.35-1.62c2.41-1.2,5.34-2.33,6.93-4.62,1.94-2.78,2-7.48-.64-9.8a8.67,8.67,0,0,0-6.34-1.9A18.59,18.59,0,0,0,58.6,65c-2.31,1.08-4.52,3.69-7.22,3.69-3,0-5.71-4-4.24-6.73a7.55,7.55,0,0,1,2.74-2.64c11-7.22,32.7-6,32.7,11v.16c0,4.36-1.83,10.44-6,12.56-2.27,1.13-5.09.78-7.26,2.07a6.87,6.87,0,0,0-3,4.27c-.35,1.44-.54,2.82-2.31,2.95A6.62,6.62,0,0,1,63.23,92.37Zm0,5.39a5.31,5.31,0,0,1,2,.08,4.72,4.72,0,0,1,1,.43,4.64,4.64,0,0,1,1.73,1.25,4.25,4.25,0,0,1,.65,1.69,7,7,0,0,1-1.81,6.66,4.36,4.36,0,0,1-3.35,1.21c-1.12-.21-3-.39-3.95-1.08a4,4,0,0,1-1.11-1.5,6.09,6.09,0,0,1,1.79-7.69A7.9,7.9,0,0,1,63.21,97.76Z"/><path class="cls-4" d="M101.64,73.66A49.79,49.79,0,0,0,90.7,115.54c3.26,16.9,13.86,25.89,28.68,33.35,5.93,3,12.26,5.84,18.9,5.58,8.47-.32,17.66-6.18,25.9-5.29,7.21.78,13.26,6.54,22,5.08a1.93,1.93,0,0,0,.53-3.65c-5.14-2.48-8.43-7.44-10.34-11.49l.49-.43A50.13,50.13,0,0,0,185,86.44c-8.11-18.88-29.88-26.18-49.46-25.21-9.91.49-23.53,3.24-31.57,10.1A22.71,22.71,0,0,0,101.64,73.66Z"/><path class="cls-3" d="M136.88,118.3A4.32,4.32,0,0,1,133.2,116a7.14,7.14,0,0,1,0-4.68c.37-1.51.91-3.31,2.18-4.32a20,20,0,0,1,3.34-1.65c2.4-1.21,5.32-2.38,6.89-4.68,1.92-2.8,1.93-7.49-.72-9.79A8.65,8.65,0,0,0,138.49,89,18.72,18.72,0,0,0,132,91c-2.3,1.11-4.49,3.74-7.19,3.76-3,0-5.74-3.91-4.3-6.7a7.65,7.65,0,0,1,2.73-2.66c10.92-7.31,32.64-6.28,32.78,10.77v.15c0,4.37-1.74,10.47-5.94,12.61-2.25,1.15-5.08.82-7.24,2.14a6.89,6.89,0,0,0-2.93,4.29c-.34,1.44-.51,2.82-2.28,3A5.08,5.08,0,0,1,136.88,118.3Zm0,5.39a5.18,5.18,0,0,1,2,.06,5.62,5.62,0,0,1,1,.42,4.62,4.62,0,0,1,1.74,1.24,4.46,4.46,0,0,1,.66,1.69,7,7,0,0,1-1.76,6.67A4.38,4.38,0,0,1,137.2,135c-1.12-.2-3-.36-4-1.05a3.83,3.83,0,0,1-1.12-1.48,6.11,6.11,0,0,1,1.73-7.71A7.71,7.71,0,0,1,136.9,123.69Z"/></g></g></svg>