<svg xmlns="http://www.w3.org/2000/svg" viewBox="0 0 200 200"><defs><style>.cls-1{isolation:isolate;}.cls-2{fill:#e7323e;}.cls-3{fill:#ff2636;}.cls-4{fill:#54c3e9;}.cls-4,.cls-5{mix-blend-mode:multiply;}.cls-6{fill:#932492;}.cls-7{fill:#fff;}</style></defs><title>rebrand_helpcentre2_icons200x200</title><g class="cls-1"><g id="Layer_1" data-name="Layer 1"><path class="cls-2" d="M142.55,133.79,134,130.7,105,101.62,111.55,95a2.76,2.76,0,0,0-3.91-3.91l-1.22,1.22L63.23,49.16A11.15,11.15,0,1,0,47.47,64.93l43.18,43.18-1.22,1.22a2.76,2.76,0,0,0,3.91,3.91l6.59-6.58L129,135.74l3.08,8.51,16.08,16.07,10.46-10.46Z"/><polygon class="cls-3" points="134.04 130.7 99.1 95.76 94.06 100.79 129.01 135.74 132.09 144.25 148.17 160.32 158.63 149.86 142.55 133.79 134.04 130.7"/><path class="cls-3" d="M135.79,130.07,100.84,95.13c-.64-.64-2.89.23-3.42.76l-5,5c-.17.16-.25.32-.07.5,10.73,10.73,23.06,20.93,32.66,32.66,2.87,3.49,3.44,7.7,5.94,11.35,3.9,5.72,10.59,10.6,15.51,15.51.64.64,2.88-.23,3.41-.76l10.46-10.46c.17-.17.24-.32.07-.5-8.25-8.25-13.91-15.29-24.81-19.25-.83-.3-4.13,1.05-3,1.45,8.91,3.23,12.91,7.62,19.67,14.38,2.54,2.54,3.87,3,3.43,5.51-.31,1.74-4.47,4.15-5.6,5.6-3.45,4.42-3,.74-.36,2.53-5-3.41-12.86-11.09-16-16.33-3.73-6.32-3.41-8.47-8.78-13.83l-22.61-22.62c-1.08-1.07-6-4.61-6-6,0-1.17,2.11-1.76,2.72-3.24,1.23-3-.11.12-1.17-.53,6.58,4,12.45,12.45,17.9,17.9l16.57,16.57C133,132,136.37,130.65,135.79,130.07Z"/><path class="cls-3" d="M92.61,110.07,47.47,64.93A11.15,11.15,0,1,1,63.23,49.16L108.38,94.3Z"/><path class="cls-3" d="M94.3,109.26,65.87,80.83C61,75.94,55.68,71.25,51.1,66.06c-2-2.24-3.84-3-4.69-6.68q9-15.68,15.33-9.2l.52.52c.74.43,1.36,1.48,2,2,12.26,9.86,22.91,22.91,34,34,2.06,2.06,4.63,4.1,6.42,6.42,1.93,2.51,1.57.51,1.22,1.48-1.8,5-11,11-14.89,14.89-1.63,1.63,1.94,2.2,3.08,1.06l15.77-15.77c.31-.31.51-1,.15-1.33L77.65,61.07c-7.23-7.22-17.16-21.74-29-14.55C32.51,56.28,51,71,58.49,78.46l32.42,32.42C92.07,112,95.57,110.53,94.3,109.26Z"/><path class="cls-4" d="M95.44,97.13a2.76,2.76,0,0,1-3.91,0L53.38,59a2.76,2.76,0,0,1,3.91-3.91L95.44,93.22A2.76,2.76,0,0,1,95.44,97.13Z"/><path class="cls-2" d="M111.55,95l-18.21,18.2a2.76,2.76,0,0,1-3.91-3.91l18.21-18.2A2.76,2.76,0,0,1,111.55,95Z"/><g class="cls-5"><path class="cls-6" d="M149.71,42.75a2.4,2.4,0,0,0-1.25-.39c-2.2-.29-5.37.92-5.37,2.69v.21c.07,6.28,3.28,18.11,2.95,20.32-.3,2-6.1,7.09-14.66,12.7a13.41,13.41,0,0,1-3-1.68l-3-2.31c-2.68-2.29-5.2-5-5.75-6.37-2-5,4.61-18.12,4.61-23.69,0-2.83-4.61-1.9-6.06-.87-6.89,4.9-12.49,10.62-14.37,19.18-1.77,8.1,2.7,12.87-.42,18.95-7,13.59-26.75,26.76-37.56,37.57-6.67,6.67-22.67,17.32-25.24,27.34-2.93,11.41,8.8,17.78,18.51,14.15,10.66-4,20.07-17.92,27.7-25.55,11.52-11.52,24-29.6,38-38a8.21,8.21,0,0,0,2-1.53c.27.4,1.59,1.06,6.33,1.52,6.82.66,15.18-3.21,20.2-7.37C169.81,76,165.76,54.14,149.71,42.75Z"/><circle class="cls-7" cx="54.64" cy="149.83" r="4.31"/></g></g></g></svg>